<?xml version="1.0" encoding="UTF-8" standalone="no"?>
<svg
   xmlns:dc="http://purl.org/dc/elements/1.1/"
   xmlns:cc="http://creativecommons.org/ns#"
   xmlns:rdf="http://www.w3.org/1999/02/22-rdf-syntax-ns#"
   xmlns:svg="http://www.w3.org/2000/svg"
   xmlns="http://www.w3.org/2000/svg"
   xmlns:sodipodi="http://sodipodi.sourceforge.net/DTD/sodipodi-0.dtd"
   xmlns:inkscape="http://www.inkscape.org/namespaces/inkscape"
   sodipodi:docname="notfound.svg"
   inkscape:version="1.0 (4035a4fb49, 2020-05-01)"
   id="svg8"
   version="1.1"
   viewBox="0 0 210 297"
   height="297mm"
   width="210mm">
  <defs
     id="defs2" />
  <sodipodi:namedview
     inkscape:window-maximized="0"
     inkscape:window-y="100"
     inkscape:window-x="2330"
     inkscape:window-height="1198"
     inkscape:window-width="2276"
     showgrid="false"
     inkscape:document-rotation="0"
     inkscape:current-layer="layer1"
     inkscape:document-units="mm"
     inkscape:cy="620.27291"
     inkscape:cx="242.9632"
     inkscape:zoom="1.4"
     inkscape:pageshadow="2"
     inkscape:pageopacity="0.0"
     borderopacity="1.0"
     bordercolor="#666666"
     pagecolor="#ffffff"
     id="base" />
  <metadata
     id="metadata5">
    <rdf:RDF>
      <cc:Work
         rdf:about="">
        <dc:format>image/svg+xml</dc:format>
        <dc:type
           rdf:resource="http://purl.org/dc/dcmitype/StillImage" />
        <dc:title></dc:title>
      </cc:Work>
    </rdf:RDF>
  </metadata>
  <g
     id="layer1"
     inkscape:groupmode="layer"
     inkscape:label="Warstwa 1">
    <rect
       y="139.9156"
       x="37.150467"
       height="65.61467"
       width="65.61467"
       id="rect833"
       style="fill:#b3b3b3;stroke-width:1;paint-order:markers stroke fill;fill-opacity:1" />
    <rect
       style="fill:#808080;stroke-width:0.885947;paint-order:markers stroke fill"
       id="rect833-0"
       width="58.131123"
       height="58.131123"
       x="40.959053"
       y="143.72418" />
    <g
       style="stroke:#ffffff;stroke-opacity:1"
       transform="matrix(0.89928609,0,0,0.89928609,26.038483,21.802383)"
       id="g882">
      <path
         style="fill:none;stroke:#ffffff;stroke-width:0.765;stroke-linecap:round;stroke-linejoin:round;stroke-miterlimit:4;stroke-dasharray:none;stroke-opacity:1;paint-order:normal"
         d="m 69.972843,182.65699 6.980747,3.23643 -6.725031,3.08725 -0.30583,0.13938 -7.09422,-3.26983 m 7.144334,-3.19323 -7.144334,3.19323 -0.0254,8.74846 6.972395,3.24848 0.147227,-8.72711 m -0.147227,8.72711 7.238766,-3.23045 -0.06068,-8.72329"
         id="path870"
         sodipodi:nodetypes="ccccccccccccc" />
      <path
         style="fill:none;stroke:#ffffff;stroke-width:0.465;stroke-linecap:round;stroke-linejoin:round;stroke-miterlimit:4;stroke-dasharray:none;stroke-opacity:1"
         d="m 64.019403,188.34149 4.627104,2.26344"
         id="path872" />
      <path
         style="fill:none;stroke:#ffffff;stroke-width:0.465;stroke-linecap:round;stroke-linejoin:round;stroke-miterlimit:4;stroke-dasharray:none;stroke-opacity:1"
         d="m 68.646507,190.60493 -2.578129,1.96423"
         id="path874" />
      <path
         style="fill:none;stroke:#ffffff;stroke-width:0.465;stroke-linecap:round;stroke-linejoin:round;stroke-miterlimit:4;stroke-dasharray:none;stroke-opacity:1"
         d="m 66.068378,192.56916 -2.048975,-4.22767"
         id="path876" />
    </g>
    <circle
       r="6.3422308"
       cy="157.84512"
       cx="52.973793"
       id="path1007"
       style="fill:none;stroke:#ffffff;stroke-width:1;stroke-linecap:round;stroke-linejoin:round;stroke-miterlimit:4;stroke-dasharray:none;stroke-opacity:1;paint-order:normal" />
    <path
       id="path1009"
       d="m 48.570553,153.03807 8.560554,9.48092"
       style="fill:none;stroke:#ffffff;stroke-width:1;stroke-linecap:butt;stroke-linejoin:miter;stroke-miterlimit:4;stroke-dasharray:none;stroke-opacity:1" />
    <path
       id="path1011"
       d="M 55.944982,182.36475 66.4766,151.82039"
       style="fill:none;stroke:#ffffff;stroke-width:1;stroke-linecap:round;stroke-linejoin:miter;stroke-miterlimit:4;stroke-dasharray:none;stroke-opacity:1" />
    <path
       sodipodi:nodetypes="cc"
       id="path1013"
       d="m 66.4766,151.82039 10.634756,30.63876"
       style="fill:none;stroke:#ffffff;stroke-width:1;stroke-linecap:round;stroke-linejoin:miter;stroke-miterlimit:4;stroke-dasharray:none;stroke-opacity:1" />
    <path
       sodipodi:nodetypes="cc"
       id="path1015"
       d="m 77.111357,182.45915 -21.166375,-0.0944"
       style="fill:none;stroke:#ffffff;stroke-width:1;stroke-linecap:round;stroke-linejoin:miter;stroke-miterlimit:4;stroke-dasharray:none;stroke-opacity:1" />
    <path
       id="path1017"
       d="m 72.261215,168.30234 5.002614,-6.66602"
       style="fill:none;stroke:#ffffff;stroke-width:1;stroke-linecap:round;stroke-linejoin:miter;stroke-miterlimit:4;stroke-dasharray:none;stroke-opacity:1" />
    <path
       sodipodi:nodetypes="cc"
       id="path1019"
       d="m 77.263829,161.63632 15.750592,20.72829"
       style="fill:none;stroke:#ffffff;stroke-width:1;stroke-linecap:round;stroke-linejoin:miter;stroke-miterlimit:4;stroke-dasharray:none;stroke-opacity:1" />
    <path
       sodipodi:nodetypes="cc"
       id="path1021"
       d="m 93.014421,182.36461 -15.903066,0.0945"
       style="fill:none;stroke:#ffffff;stroke-width:1;stroke-linecap:round;stroke-linejoin:miter;stroke-miterlimit:4;stroke-dasharray:none;stroke-opacity:1" />
    <path
       transform="scale(0.26458333)"
       id="path1029"
       d="m 238.06092,687.41272 c -13.00033,-0.0661 -23.67046,-0.15364 -23.71139,-0.19451 -0.0564,-0.0563 17.11615,-49.98491 36.61633,-106.46038 l 0.29743,-0.86141 18.59809,53.61349 c 10.22895,29.48741 18.63222,53.71389 18.67392,53.83663 0.0868,0.25531 -10.54406,0.26925 -50.47438,0.0662 z"
       style="fill:#b3b3b3;fill-opacity:1;stroke:#ffffff;stroke-width:0.674916;stroke-linecap:round;stroke-linejoin:round;stroke-miterlimit:4;stroke-dasharray:none;stroke-opacity:1;paint-order:normal" />
    <path
       transform="scale(0.26458333)"
       id="path1031"
       d="m 292.70092,687.16448 c -0.70831,-1.91086 -17.43826,-50.25341 -17.44093,-50.39699 -0.004,-0.23605 16.61079,-22.41739 16.78497,-22.408 0.0701,0.004 12.58318,16.40627 27.80682,36.44998 l 27.67932,36.44311 -14.16661,0.11974 c -7.79164,0.0659 -20.09493,0.13641 -27.34065,0.15678 l -13.17404,0.037 z"
       style="fill:#b3b3b3;fill-opacity:1;stroke:#ffffff;stroke-width:0.674916;stroke-linecap:round;stroke-linejoin:round;stroke-miterlimit:4;stroke-dasharray:none;stroke-opacity:1;paint-order:normal" />
    <path
       transform="scale(0.26458333)"
       id="path1033"
       d="m 198.537,618.51809 c -2.50011,-0.34394 -3.43652,-0.5352 -4.91156,-1.00316 -8.78881,-2.78829 -14.86802,-10.64854 -15.31743,-19.80503 -0.26643,-5.42844 1.22931,-10.22564 4.52775,-14.52156 0.52821,-0.68794 1.02198,-1.25086 1.09728,-1.25092 0.0753,-6e-5 6.47572,7.02584 14.22318,15.61312 7.74745,8.58727 14.31935,15.8609 14.60422,16.16362 l 0.51796,0.55039 -0.96433,0.64144 c -2.28593,1.52052 -5.27301,2.73909 -7.97785,3.25453 -1.4726,0.28063 -4.84642,0.48865 -5.79922,0.35757 z"
       style="fill:#b3b3b3;fill-opacity:1;stroke:#ffffff;stroke-width:0.674916;stroke-linecap:round;stroke-linejoin:round;stroke-miterlimit:4;stroke-dasharray:none;stroke-opacity:1;paint-order:normal" />
    <path
       transform="scale(0.26458333)"
       id="path1035"
       d="m 325.78572,718.91202 c -5.65797,-2.60951 -10.22898,-4.80171 -10.15778,-4.87154 0.0712,-0.0698 4.73665,-2.18384 10.36765,-4.69779 l 10.2382,-4.57082 10.07439,4.66564 c 5.54091,2.56609 10.07443,4.719 10.07449,4.78424 8e-5,0.10017 -6.1185,2.94908 -17.78581,8.28135 l -2.5239,1.15349 z"
       style="fill:#b3b3b3;fill-opacity:1;stroke:#ffffff;stroke-width:0.674916;stroke-linecap:round;stroke-linejoin:round;stroke-miterlimit:4;stroke-dasharray:none;stroke-opacity:1;paint-order:normal" />
    <path
       transform="scale(0.26458333)"
       id="path1037"
       d="m 337.0442,748.91712 c 0.0505,-2.03799 0.16573,-7.99794 0.25594,-13.24433 0.0902,-5.24639 0.18408,-9.55634 0.20858,-9.57766 0.29516,-0.25685 20.90556,-9.55612 20.99091,-9.47095 0.0645,0.0644 0.12223,6.03271 0.12828,13.26297 l 0.011,13.14594 -10.71029,4.78902 c -5.89066,2.63396 -10.77015,4.79159 -10.84331,4.79473 -0.0732,0.003 -0.0917,-1.66173 -0.0411,-3.69972 z"
       style="fill:#b3b3b3;fill-opacity:1;stroke:#ffffff;stroke-width:0.674916;stroke-linecap:round;stroke-linejoin:round;stroke-miterlimit:4;stroke-dasharray:none;stroke-opacity:1;paint-order:normal" />
    <path
       transform="scale(0.26458333)"
       id="path1039"
       d="m 323.62779,747.75958 -10.37623,-4.84282 0.0702,-13.21762 c 0.0386,-7.26969 0.0984,-13.24888 0.13287,-13.28709 0.0345,-0.0382 4.82035,2.12323 10.63525,4.80319 l 10.57253,4.87266 -0.11265,7.06302 c -0.24295,15.23246 -0.33888,19.47348 -0.44024,19.4627 -0.058,-0.006 -4.77477,-2.19048 -10.4817,-4.85404 z m 4.14531,-13.36959 c 2.48366,-1.88242 4.60999,-3.53632 4.72517,-3.67534 0.14221,-0.17164 0.15645,-0.39841 0.0444,-0.70665 -0.13768,-0.37867 -1.49166,-1.10096 -8.16847,-4.35751 -4.40188,-2.14698 -8.18416,-3.90345 -8.40505,-3.90327 -0.47902,4e-4 -0.82992,0.31227 -0.82957,0.73729 3.5e-4,0.42222 7.07007,14.98633 7.36539,15.17322 0.13019,0.0824 0.35274,0.15093 0.49455,0.15232 0.14181,10e-4 2.28993,-1.53765 4.7736,-3.42006 z"
       style="fill:#b3b3b3;fill-opacity:1;stroke:#ffffff;stroke-width:0.674916;stroke-linecap:round;stroke-linejoin:round;stroke-miterlimit:4;stroke-dasharray:none;stroke-opacity:1;paint-order:normal" />
    <path
       transform="scale(0.26458333)"
       id="path1041"
       d="m 320.54069,730.0408 c -1.49676,-3.09087 -2.70986,-5.63131 -2.69577,-5.64542 0.0329,-0.0329 12.31213,5.97025 12.29823,6.01246 -0.009,0.0269 -6.73463,5.16789 -6.84323,5.2308 -0.0208,0.0121 -1.26247,-2.50697 -2.75923,-5.59784 z"
       style="fill:#b3b3b3;fill-opacity:1;stroke:#ffffff;stroke-width:0.168729;stroke-linecap:round;stroke-linejoin:round;stroke-miterlimit:4;stroke-dasharray:none;stroke-opacity:1;paint-order:normal" />
  </g>
</svg>
